STARTFONT 2.1
COMMENT
COMMENT Converted from TrueType font "VeraMono.ttf" by "ttf2bdf 2.6".
COMMENT
FONT -FreeType-Bitstream Vera Sans Mono-Medium-R-Normal--25-180-100-100-P-114-ISO10646-1
SIZE 18 100 100
FONTBOUNDINGBOX 16 30 0 -6
STARTPROPERTIES 20
FOUNDRY "FreeType"
FAMILY_NAME "Bitstream Vera Sans Mono"
WEIGHT_NAME "Medium"
SLANT "R"
SETWIDTH_NAME "Normal"
ADD_STYLE_NAME ""
PIXEL_SIZE 25
POINT_SIZE 180
RESOLUTION_X 100
RESOLUTION_Y 100
SPACING "P"
AVERAGE_WIDTH 114
CHARSET_REGISTRY "ISO10646"
CHARSET_ENCODING "1"
FONT_ASCENT 23
FONT_DESCENT 5
COPYRIGHT "Copyright (c) 2003 by Bitstream, Inc. All Rights Reserved."
_TTF_FONTFILE "VeraMono.ttf"
_TTF_PSNAME "BitstreamVeraSansMono-Roman"
_XFREE86_GLYPH_RANGES "32_126 160_255 262_263 268_269 273 286_287 304_305 321_322 338_339 350_353 376 381_382 402 710_711 728_733 937 960 8211_8212 8216_8218 8220_8222 8224_8226 8230 8240 8249_8250 8364 8482 8706 8710 8719 8721_8722 8725 8729_8730 8734 8747 8776 8800 8804_8805 9674 64257_64258"
ENDPROPERTIES
CHARS 256
STARTCHAR 0020
ENCODING 32
SWIDTH 600 0
DWIDTH 15 0
BBX 1 1 0 0
BITMAP
00
ENDCHAR
STARTCHAR 0021
ENCODING 33
SWIDTH 600 0
DWIDTH 15 0
BBX 2 18 6 0
BITMAP
C0
C0
C0
C0
C0
C0
C0
C0
C0
C0
C0
C0
00
00
00
C0
C0
C0
ENDCHAR
STARTCHAR 0022
ENCODING 34
SWIDTH 600 0
DWIDTH 15 0
BBX 7 7 4 11
BITMAP
C6
C6
C6
C6
C6
C6
C6
ENDCHAR
STARTCHAR 0023
ENCODING 35
SWIDTH 600 0
DWIDTH 15 0
BBX 15 18 0 0
BITMAP
0318
0318
0318
0630
0630
7FFE
7FFE
0460
0C60
0C60
0C60
FFFC
FFFC
18C0
18C0
3180
3180
3180
ENDCHAR
STARTCHAR 0024
ENCODING 36
SWIDTH 600 0
DWIDTH 15 0
BBX 11 23 2 -4
BITMAP
0400
0400
0400
1F80
7FC0
E440
C400
C400
C400
E400
7F00
1FC0
05C0
0460
0460
0460
84E0
FFC0
3F00
0400
0400
0400
0400
ENDCHAR
STARTCHAR 0025
ENCODING 37
SWIDTH 600 0
DWIDTH 15 0
BBX 15 18 0 0
BITMAP
3C00
7E00
E700
C300
C300
E700
7E1C
3C78
01C0
0700
3C78
60FC
01CE
0186
0186
01CE
00FC
0078
ENDCHAR
STARTCHAR 0026
ENCODING 38
SWIDTH 600 0
DWIDTH 15 0
BBX 14 18 1 0
BITMAP
0F80
1FC0
3840
3000
3000
3000
1800
1C00
3E00
670C
C30C
C18C
C0CC
C0F8
E070
7078
3FD8
1F9C
ENDCHAR
STARTCHAR 0027
ENCODING 39
SWIDTH 600 0
DWIDTH 15 0
BBX 2 7 6 11
BITMAP
C0
C0
C0
C0
C0
C0
C0
ENDCHAR
STARTCHAR 0028
ENCODING 40
SWIDTH 600 0
DWIDTH 15 0
BBX 6 22 5 -3
BITMAP
1C
18
30
30
60
60
60
C0
C0
C0
C0
C0
C0
C0
C0
60
60
60
30
30
18
1C
ENDCHAR
STARTCHAR 0029
ENCODING 41
SWIDTH 600 0
DWIDTH 15 0
BBX 6 22 3 -3
BITMAP
E0
60
30
30
18
18
18
0C
0C
0C
0C
0C
0C
0C
0C
18
18
18
30
30
60
E0
ENDCHAR
STARTCHAR 002A
ENCODING 42
SWIDTH 600 0
DWIDTH 15 0
BBX 11 12 2 6
BITMAP
0400
0400
8460
E4E0
3F80
0E00
0E00
3F80
E4E0
C460
0400
0400
ENDCHAR
STARTCHAR 002B
ENCODING 43
SWIDTH 600 0
DWIDTH 15 0
BBX 12 12 2 2
BITMAP
0600
0600
0600
0600
0600
FFF0
FFF0
0600
0600
0600
0600
0600
ENDCHAR
STARTCHAR 002C
ENCODING 44
SWIDTH 600 0
DWIDTH 15 0
BBX 4 7 5 -3
BITMAP
70
70
70
70
60
E0
C0
ENDCHAR
STARTCHAR 002D
ENCODING 45
SWIDTH 600 0
DWIDTH 15 0
BBX 6 2 4 6
BITMAP
FC
FC
ENDCHAR
STARTCHAR 002E
ENCODING 46
SWIDTH 600 0
DWIDTH 15 0
BBX 3 4 6 0
BITMAP
E0
E0
E0
E0
ENDCHAR
STARTCHAR 002F
ENCODING 47
SWIDTH 600 0
DWIDTH 15 0
BBX 12 21 1 -3
BITMAP
0030
0060
0060
00C0
00C0
0180
0180
0300
0300
0600
0600
0600
0C00
0C00
1800
1800
3000
3000
6000
6000
C000
ENDCHAR
STARTCHAR 0030
ENCODING 48
SWIDTH 600 0
DWIDTH 15 0
BBX 12 18 2 0
BITMAP
0F00
3FC0
70E0
6060
6060
C030
C030
CE30
CE30
CE30
C030
C030
C030
6060
6060
70E0
3FC0
0F00
ENDCHAR
STARTCHAR 0031
ENCODING 49
SWIDTH 600 0
DWIDTH 15 0
BBX 10 18 3 0
BITMAP
3C00
FC00
CC00
0C00
0C00
0C00
0C00
0C00
0C00
0C00
0C00
0C00
0C00
0C00
0C00
0C00
FFC0
FFC0
ENDCHAR
STARTCHAR 0032
ENCODING 50
SWIDTH 600 0
DWIDTH 15 0
BBX 12 18 2 0
BITMAP
3F00
FFC0
C0E0
0070
0030
0030
0030
0060
00E0
01C0
0380
0700
0E00
1C00
3800
7000
FFF0
FFF0
ENDCHAR
STARTCHAR 0033
ENCODING 51
SWIDTH 600 0
DWIDTH 15 0
BBX 12 18 2 0
BITMAP
1F80
7FE0
6060
0030
0030
0030
00E0
1FC0
1FC0
00E0
0070
0030
0030
0030
0070
C0E0
FFC0
3F80
ENDCHAR
STARTCHAR 0034
ENCODING 52
SWIDTH 600 0
DWIDTH 15 0
BBX 13 18 1 0
BITMAP
00E0
01E0
0360
0360
0660
0C60
1C60
1860
3060
7060
6060
C060
FFF8
FFF8
0060
0060
0060
0060
ENDCHAR
STARTCHAR 0035
ENCODING 53
SWIDTH 600 0
DWIDTH 15 0
BBX 12 18 2 0
BITMAP
7FE0
7FE0
6000
6000
6000
6000
7F00
7FC0
40E0
0070
0030
0030
0030
0030
0070
80E0
FFC0
7F00
ENDCHAR
STARTCHAR 0036
ENCODING 54
SWIDTH 600 0
DWIDTH 15 0
BBX 12 18 2 0
BITMAP
0FC0
1FE0
3820
7000
6000
C000
CF80
DFC0
F0E0
E070
C030
C030
C030
C030
6070
70E0
3FC0
0F80
ENDCHAR
STARTCHAR 0037
ENCODING 55
SWIDTH 600 0
DWIDTH 15 0
BBX 12 18 2 0
BITMAP
FFF0
FFF0
0060
0060
00C0
00C0
01C0
0180
0380
0300
0700
0600
0600
0C00
0C00
1800
1800
3000
ENDCHAR
STARTCHAR 0038
ENCODING 56
SWIDTH 600 0
DWIDTH 15 0
BBX 12 18 2 0
BITMAP
1F80
7FE0
E070
C030
C030
C030
6060
3FC0
3FC0
70E0
E070
C030
C030
C030
E070
70E0
7FE0
1F80
ENDCHAR
STARTCHAR 0039
ENCODING 57
SWIDTH 600 0
DWIDTH 15 0
BBX 12 18 2 0
BITMAP
1F00
3FC0
70E0
E060
C020
C030
C030
C030
E070
70F0
3FB0
1F30
0030
0060
0060
41C0
7F80
3F00
ENDCHAR
STARTCHAR 003A
ENCODING 58
SWIDTH 600 0
DWIDTH 15 0
BBX 3 13 6 0
BITMAP
E0
E0
E0
E0
00
00
00
00
00
E0
E0
E0
E0
ENDCHAR
STARTCHAR 003B
ENCODING 59
SWIDTH 600 0
DWIDTH 15 0
BBX 4 16 5 -3
BITMAP
70
70
70
70
00
00
00
00
00
70
70
70
70
60
E0
C0
ENDCHAR
STARTCHAR 003C
ENCODING 60
SWIDTH 600 0
DWIDTH 15 0
BBX 13 12 1 2
BITMAP
0008
0078
03F0
0F80
7E00
F000
F000
7E00
0F80
01F0
0078
0008
ENDCHAR
STARTCHAR 003D
ENCODING 61
SWIDTH 600 0
DWIDTH 15 0
BBX 13 7 1 4
BITMAP
FFF8
FFF8
0000
0000
0000
FFF8
FFF8
ENDCHAR
STARTCHAR 003E
ENCODING 62
SWIDTH 600 0
DWIDTH 15 0
BBX 13 12 1 2
BITMAP
8000
F000
7C00
0F80
03F0
0078
0078
03F0
0F80
7E00
F000
8000
ENDCHAR
STARTCHAR 003F
ENCODING 63
SWIDTH 600 0
DWIDTH 15 0
BBX 10 18 3 0
BITMAP
3E00
7F80
E1C0
80C0
00C0
00C0
0180
0780
0E00
1C00
1800
1800
1800
0000
0000
1800
1800
1800
ENDCHAR
STARTCHAR 0040
ENCODING 64
SWIDTH 600 0
DWIDTH 15 0
BBX 14 21 1 -4
BITMAP
03E0
0FF0
1C38
301C
700C
61EC
E3FC
C71C
C60C
C60C
C60C
C60C
C71C
C3FC
61EC
6000
7000
3800
1C10
0FF0
03F0
ENDCHAR
STARTCHAR 0041
ENCODING 65
SWIDTH 600 0
DWIDTH 15 0
BBX 14 18 1 0
BITMAP
0780
0780
0780
0FC0
0CC0
0CC0
0CC0
1860
1860
1860
3030
3FF0
3FF0
6018
6018
6018
E01C
C00C
ENDCHAR
STARTCHAR 0042
ENCODING 66
SWIDTH 600 0
DWIDTH 15 0
BBX 12 18 1 0
BITMAP
FF00
FFC0
C0E0
C060
C060
C060
C0E0
FFC0
FFC0
C0E0
C070
C030
C030
C030
C030
C0E0
FFE0
FF80
ENDCHAR
STARTCHAR 0043
ENCODING 67
SWIDTH 600 0
DWIDTH 15 0
BBX 12 18 1 0
BITMAP
07E0
1FF0
3830
7010
6000
C000
C000
C000
C000
C000
C000
C000
C000
6000
7010
3830
1FF0
07E0
ENDCHAR
STARTCHAR 0044
ENCODING 68
SWIDTH 600 0
DWIDTH 15 0
BBX 12 18 1 0
BITMAP
FE00
FF80
C1C0
C060
C060
C030
C030
C030
C030
C030
C030
C030
C030
C060
C0E0
C1C0
FF80
FE00
ENDCHAR
STARTCHAR 0045
ENCODING 69
SWIDTH 600 0
DWIDTH 15 0
BBX 12 18 1 0
BITMAP
FFF0
FFF0
C000
C000
C000
C000
C000
FFE0
FFE0
C000
C000
C000
C000
C000
C000
C000
FFF0
FFF0
ENDCHAR
STARTCHAR 0046
ENCODING 70
SWIDTH 600 0
DWIDTH 15 0
BBX 12 18 1 0
BITMAP
FFF0
FFF0
C000
C000
C000
C000
C000
FFE0
FFE0
C000
C000
C000
C000
C000
C000
C000
C000
C000
ENDCHAR
STARTCHAR 0047
ENCODING 71
SWIDTH 600 0
DWIDTH 15 0
BBX 12 18 1 0
BITMAP
0FC0
1FE0
3860
6020
6000
C000
C000
C000
C1F0
C1F0
C030
C030
C030
6030
6030
3870
1FF0
0FC0
ENDCHAR
STARTCHAR 0048
ENCODING 72
SWIDTH 600 0
DWIDTH 15 0
BBX 12 18 1 0
BITMAP
C030
C030
C030
C030
C030
C030
C030
FFF0
FFF0
C030
C030
C030
C030
C030
C030
C030
C030
C030
ENDCHAR
STARTCHAR 0049
ENCODING 73
SWIDTH 600 0
DWIDTH 15 0
BBX 10 18 2 0
BITMAP
FFC0
FFC0
0C00
0C00
0C00
0C00
0C00
0C00
0C00
0C00
0C00
0C00
0C00
0C00
0C00
0C00
FFC0
FFC0
ENDCHAR
STARTCHAR 004A
ENCODING 74
SWIDTH 600 0
DWIDTH 15 0
BBX 10 18 1 0
BITMAP
1FC0
1FC0
00C0
00C0
00C0
00C0
00C0
00C0
00C0
00C0
00C0
00C0
00C0
00C0
80C0
C180
FF80
7E00
ENDCHAR
STARTCHAR 004B
ENCODING 75
SWIDTH 600 0
DWIDTH 15 0
BBX 12 18 1 0
BITMAP
C070
C0E0
C1C0
C380
C700
CE00
DC00
FC00
FC00
E600
C700
C300
C180
C1C0
C0C0
C060
C070
C030
ENDCHAR
STARTCHAR 004C
ENCODING 76
SWIDTH 600 0
DWIDTH 15 0
BBX 12 18 1 0
BITMAP
C000
C000
C000
C000
C000
C000
C000
C000
C000
C000
C000
C000
C000
C000
C000
C000
FFF0
FFF0
ENDCHAR
STARTCHAR 004D
ENCODING 77
SWIDTH 600 0
DWIDTH 15 0
BBX 13 18 1 0
BITMAP
E038
F078
F078
D058
D8D8
D8D8
CD98
CD98
C518
C718
C718
C018
C018
C018
C018
C018
C018
C018
ENDCHAR
STARTCHAR 004E
ENCODING 78
SWIDTH 600 0
DWIDTH 15 0
BBX 12 18 1 0
BITMAP
E030
F030
F030
F830
D830
D830
CC30
CC30
C630
C630
C330
C330
C1B0
C1B0
C1F0
C0F0
C0F0
C070
ENDCHAR
STARTCHAR 004F
ENCODING 79
SWIDTH 600 0
DWIDTH 15 0
BBX 12 18 1 0
BITMAP
0F00
3FC0
70E0
6060
E060
C030
C030
C030
C030
C030
C030
C030
C030
E070
6060
70E0
3FC0
1F80
ENDCHAR
STARTCHAR 0050
ENCODING 80
SWIDTH 600 0
DWIDTH 15 0
BBX 12 18 1 0
BITMAP
FF80
FFC0
C0E0
C070
C030
C030
C030
C070
C0E0
FFC0
FF80
C000
C000
C000
C000
C000
C000
C000
ENDCHAR
STARTCHAR 0051
ENCODING 81
SWIDTH 600 0
DWIDTH 15 0
BBX 12 21 1 -3
BITMAP
0F00
3FC0
70E0
6060
E060
C030
C030
C030
C030
C030
C030
C030
C030
E070
6060
70E0
3FC0
0F80
01C0
00E0
0040
ENDCHAR
STARTCHAR 0052
ENCODING 82
SWIDTH 600 0
DWIDTH 15 0
BBX 14 18 1 0
BITMAP
FF80
FFC0
C0E0
C070
C030
C030
C030
C070
C0E0
FFC0
FF80
C0C0
C060
C070
C030
C038
C018
C01C
ENDCHAR
STARTCHAR 0053
ENCODING 83
SWIDTH 600 0
DWIDTH 15 0
BBX 12 18 1 0
BITMAP
1F80
3FE0
7060
C020
C000
C000
E000
7000
3F00
0FC0
00E0
0030
0030
0030
8030
E0E0
FFE0
3F80
ENDCHAR
STARTCHAR 0054
ENCODING 84
SWIDTH 600 0
DWIDTH 15 0
BBX 14 18 0 0
BITMAP
FFFC
FFFC
0300
0300
0300
0300
0300
0300
0300
0300
0300
0300
0300
0300
0300
0300
0300
0300
ENDCHAR
STARTCHAR 0055
ENCODING 85
SWIDTH 600 0
DWIDTH 15 0
BBX 12 18 1 0
BITMAP
C030
C030
C030
C030
C030
C030
C030
C030
C030
C030
C030
C030
C030
C030
C030
70E0
3FC0
1F80
ENDCHAR
STARTCHAR 0056
ENCODING 86
SWIDTH 600 0
DWIDTH 15 0
BBX 14 18 1 0
BITMAP
C00C
E01C
6018
6018
6038
3030
3030
3030
1860
1860
1860
1CE0
0CC0
0CC0
0FC0
0780
0780
0780
ENDCHAR
STARTCHAR 0057
ENCODING 87
SWIDTH 600 0
DWIDTH 15 0
BBX 15 18 0 0
BITMAP
C006
C006
C006
600E
600C
638C
638C
628C
66CC
66CC
36D8
36D8
3458
3C78
3C78
3C78
3838
1830
ENDCHAR
STARTCHAR 0058
ENCODING 88
SWIDTH 600 0
DWIDTH 15 0
BBX 15 18 1 0
BITMAP
E00E
601C
3018
3830
1C70
0C60
06C0
07C0
0380
07C0
06C0
0CE0
1C60
1830
3838
3018
600C
E00E
ENDCHAR
STARTCHAR 0059
ENCODING 89
SWIDTH 600 0
DWIDTH 15 0
BBX 14 18 0 0
BITMAP
E01C
6018
3038
3030
1860
1CE0
0CC0
0780
0780
0300
0300
0300
0300
0300
0300
0300
0300
0300
ENDCHAR
STARTCHAR 005A
ENCODING 90
SWIDTH 600 0
DWIDTH 15 0
BBX 12 18 1 0
BITMAP
FFF0
FFF0
0070
00E0
00C0
01C0
0380
0300
0700
0E00
0C00
1C00
3800
3000
7000
E000
FFF0
FFF0
ENDCHAR
STARTCHAR 005B
ENCODING 91
SWIDTH 600 0
DWIDTH 15 0
BBX 5 22 6 -3
BITMAP
F8
F8
C0
C0
C0
C0
C0
C0
C0
C0
C0
C0
C0
C0
C0
C0
C0
C0
C0
C0
F8
F8
ENDCHAR
STARTCHAR 005C
ENCODING 92
SWIDTH 600 0
DWIDTH 15 0
BBX 12 21 1 -3
BITMAP
C000
6000
6000
3000
3000
1800
1800
0C00
0C00
0600
0600
0600
0300
0300
0180
0180
00C0
00C0
0060
0060
0030
ENDCHAR
STARTCHAR 005D
ENCODING 93
SWIDTH 600 0
DWIDTH 15 0
BBX 5 22 4 -3
BITMAP
F8
F8
18
18
18
18
18
18
18
18
18
18
18
18
18
18
18
18
18
18
F8
F8
ENDCHAR
STARTCHAR 005E
ENCODING 94
SWIDTH 600 0
DWIDTH 15 0
BBX 13 7 1 11
BITMAP
0700
0F80
1D80
18C0
3060
6030
E038
ENDCHAR
STARTCHAR 005F
ENCODING 95
SWIDTH 600 0
DWIDTH 15 0
BBX 13 2 0 -6
BITMAP
FFF8
FFF8
ENDCHAR
STARTCHAR 0060
ENCODING 96
SWIDTH 600 0
DWIDTH 15 0
BBX 6 5 3 15
BITMAP
E0
70
30
18
0C
ENDCHAR
STARTCHAR 0061
ENCODING 97
SWIDTH 600 0
DWIDTH 15 0
BBX 12 14 2 0
BITMAP
1F80
7FE0
6060
0030
0030
1FF0
7FF0
F030
C030
C030
C070
E0F0
7FB0
3F30
ENDCHAR
STARTCHAR 0062
ENCODING 98
SWIDTH 600 0
DWIDTH 15 0
BBX 12 19 2 0
BITMAP
C000
C000
C000
C000
C000
CF80
FFC0
F0E0
E060
C030
C030
C030
C030
C030
C030
E060
F0E0
FFC0
CF80
ENDCHAR
STARTCHAR 0063
ENCODING 99
SWIDTH 600 0
DWIDTH 15 0
BBX 11 14 2 0
BITMAP
0F80
3FC0
7060
6020
C000
C000
C000
C000
C000
C000
6000
7020
3FE0
0FC0
ENDCHAR
STARTCHAR 0064
ENCODING 100
SWIDTH 600 0
DWIDTH 15 0
BBX 12 19 2 0
BITMAP
0030
0030
0030
0030
0030
1F30
3FB0
70F0
6070
C030
C030
C030
C030
C030
C030
6070
70F0
3FF0
1F30
ENDCHAR
STARTCHAR 0065
ENCODING 101
SWIDTH 600 0
DWIDTH 15 0
BBX 12 14 2 0
BITMAP
0F80
3FC0
70E0
6060
C030
C030
FFF0
FFF0
C000
C000
6000
7060
3FE0
0FC0
ENDCHAR
STARTCHAR 0066
ENCODING 102
SWIDTH 600 0
DWIDTH 15 0
BBX 11 19 2 0
BITMAP
03E0
07E0
0C00
0C00
0C00
FFE0
FFE0
0C00
0C00
0C00
0C00
0C00
0C00
0C00
0C00
0C00
0C00
0C00
0C00
ENDCHAR
STARTCHAR 0067
ENCODING 103
SWIDTH 600 0
DWIDTH 15 0
BBX 12 19 2 -5
BITMAP
1F30
3FB0
70F0
6070
C030
C030
C030
C030
C030
C030
6070
70F0
3FB0
1F30
0030
0030
2060
3FC0
1F80
ENDCHAR
STARTCHAR 0068
ENCODING 104
SWIDTH 600 0
DWIDTH 15 0
BBX 10 19 2 0
BITMAP
C000
C000
C000
C000
C000
CF00
DF80
F1C0
E0C0
C0C0
C0C0
C0C0
C0C0
C0C0
C0C0
C0C0
C0C0
C0C0
C0C0
ENDCHAR
STARTCHAR 0069
ENCODING 105
SWIDTH 600 0
DWIDTH 15 0
BBX 10 19 3 0
BITMAP
0C00
0C00
0C00
0000
0000
FC00
FC00
0C00
0C00
0C00
0C00
0C00
0C00
0C00
0C00
0C00
0C00
FFC0
FFC0
ENDCHAR
STARTCHAR 006A
ENCODING 106
SWIDTH 600 0
DWIDTH 15 0
BBX 7 24 2 -5
BITMAP
06
06
06
00
00
7E
7E
06
06
06
06
06
06
06
06
06
06
06
06
06
06
0E
FC
F8
ENDCHAR
STARTCHAR 006B
ENCODING 107
SWIDTH 600 0
DWIDTH 15 0
BBX 12 19 3 0
BITMAP
C000
C000
C000
C000
C000
C0E0
C1C0
C300
CE00
DC00
FC00
FC00
E600
C700
C380
C180
C0C0
C0E0
C070
ENDCHAR
STARTCHAR 006C
ENCODING 108
SWIDTH 600 0
DWIDTH 15 0
BBX 11 19 2 0
BITMAP
FC00
FC00
0C00
0C00
0C00
0C00
0C00
0C00
0C00
0C00
0C00
0C00
0C00
0C00
0C00
0C00
0E00
07E0
03E0
ENDCHAR
STARTCHAR 006D
ENCODING 109
SWIDTH 600 0
DWIDTH 15 0
BBX 12 14 1 0
BITMAP
DCE0
FFE0
C630
C630
C630
C630
C630
C630
C630
C630
C630
C630
C630
C630
ENDCHAR
STARTCHAR 006E
ENCODING 110
SWIDTH 600 0
DWIDTH 15 0
BBX 10 14 2 0
BITMAP
CF00
DF80
F1C0
E0C0
C0C0
C0C0
C0C0
C0C0
C0C0
C0C0
C0C0
C0C0
C0C0
C0C0
ENDCHAR
STARTCHAR 006F
ENCODING 111
SWIDTH 600 0
DWIDTH 15 0
BBX 12 14 2 0
BITMAP
1F80
3FC0
70E0
6060
C030
C030
C030
C030
C030
C030
6060
70E0
3FC0
1F80
ENDCHAR
STARTCHAR 0070
ENCODING 112
SWIDTH 600 0
DWIDTH 15 0
BBX 12 19 2 -5
BITMAP
CF80
FFC0
F0E0
E060
C030
C030
C030
C030
C030
C030
E060
F0E0
FFC0
CF80
C000
C000
C000
C000
C000
ENDCHAR
STARTCHAR 0071
ENCODING 113
SWIDTH 600 0
DWIDTH 15 0
BBX 12 19 2 -5
BITMAP
1F30
3FB0
70F0
6070
C030
C030
C030
C030
C030
C030
6070
70F0
3FF0
1F30
0030
0030
0030
0030
0030
ENDCHAR
STARTCHAR 0072
ENCODING 114
SWIDTH 600 0
DWIDTH 15 0
BBX 10 14 4 0
BITMAP
CF80
DFC0
F040
E000
C000
C000
C000
C000
C000
C000
C000
C000
C000
C000
ENDCHAR
STARTCHAR 0073
ENCODING 115
SWIDTH 600 0
DWIDTH 15 0
BBX 10 14 3 0
BITMAP
3F00
7F80
E080
C000
C000
E000
7F00
1F80
01C0
00C0
00C0
C1C0
FF80
7E00
ENDCHAR
STARTCHAR 0074
ENCODING 116
SWIDTH 600 0
DWIDTH 15 0
BBX 11 18 1 0
BITMAP
0C00
0C00
0C00
0C00
FFE0
FFE0
0C00
0C00
0C00
0C00
0C00
0C00
0C00
0C00
0C00
0E00
07E0
03E0
ENDCHAR
STARTCHAR 0075
ENCODING 117
SWIDTH 600 0
DWIDTH 15 0
BBX 10 14 2 0
BITMAP
C0C0
C0C0
C0C0
C0C0
C0C0
C0C0
C0C0
C0C0
C0C0
C0C0
C1C0
E3C0
7EC0
3CC0
ENDCHAR
STARTCHAR 0076
ENCODING 118
SWIDTH 600 0
DWIDTH 15 0
BBX 13 14 1 0
BITMAP
C018
6030
6030
6030
3060
3060
3060
18C0
18C0
1DC0
0D80
0D80
0F80
0700
ENDCHAR
STARTCHAR 0077
ENCODING 119
SWIDTH 600 0
DWIDTH 15 0
BBX 15 14 0 0
BITMAP
C006
C006
600C
600C
638C
638C
729C
3298
36D8
36D8
3458
1C70
1C70
1830
ENDCHAR
STARTCHAR 0078
ENCODING 120
SWIDTH 600 0
DWIDTH 15 0
BBX 13 14 1 0
BITMAP
E038
7070
30E0
18C0
1DC0
0F80
0700
0700
0D80
1DC0
38C0
3060
7070
E038
ENDCHAR
STARTCHAR 0079
ENCODING 121
SWIDTH 600 0
DWIDTH 15 0
BBX 13 19 1 -5
BITMAP
C018
6030
6030
7070
3060
3060
18C0
18C0
1DC0
0D80
0D80
0700
0700
0700
0600
0600
0E00
7C00
7800
ENDCHAR
STARTCHAR 007A
ENCODING 122
SWIDTH 600 0
DWIDTH 15 0
BBX 10 14 2 0
BITMAP
FFC0
FFC0
01C0
0380
0300
0600
0E00
1C00
1800
3000
7000
E000
FFC0
FFC0
ENDCHAR
STARTCHAR 007B
ENCODING 123
SWIDTH 600 0
DWIDTH 15 0
BBX 10 23 2 -4
BITMAP
03C0
07C0
0E00
0C00
0C00
0C00
0C00
0C00
0C00
1C00
F800
F800
1C00
0C00
0C00
0C00
0C00
0C00
0C00
0C00
0E00
07C0
03C0
ENDCHAR
STARTCHAR 007C
ENCODING 124
SWIDTH 600 0
DWIDTH 15 0
BBX 2 25 6 -6
BITMAP
C0
C0
C0
C0
C0
C0
C0
C0
C0
C0
C0
C0
C0
C0
C0
C0
C0
C0
C0
C0
C0
C0
C0
C0
C0
ENDCHAR
STARTCHAR 007D
ENCODING 125
SWIDTH 600 0
DWIDTH 15 0
BBX 10 23 2 -4
BITMAP
F000
F800
1C00
0C00
0C00
0C00
0C00
0C00
0C00
0E00
07C0
07C0
0E00
0C00
0C00
0C00
0C00
0C00
0C00
0C00
1C00
F800
F000
ENDCHAR
STARTCHAR 007E
ENCODING 126
SWIDTH 600 0
DWIDTH 15 0
BBX 13 4 1 6
BITMAP
3C08
FF18
C3F8
01E0
ENDCHAR
STARTCHAR 00A0
ENCODING 160
SWIDTH 600 0
DWIDTH 15 0
BBX 1 1 0 0
BITMAP
00
ENDCHAR
STARTCHAR 00A1
ENCODING 161
SWIDTH 600 0
DWIDTH 15 0
BBX 2 18 6 0
BITMAP
C0
C0
C0
00
00
00
C0
C0
C0
C0
C0
C0
C0
C0
C0
C0
C0
C0
ENDCHAR
STARTCHAR 00A2
ENCODING 162
SWIDTH 600 0
DWIDTH 15 0
BBX 10 22 3 -4
BITMAP
0200
0200
0200
0200
0F80
3FC0
7240
6200
C200
C200
C200
C200
C200
C200
6200
7240
3FC0
0F80
0200
0200
0200
0200
ENDCHAR
STARTCHAR 00A3
ENCODING 163
SWIDTH 600 0
DWIDTH 15 0
BBX 12 18 2 0
BITMAP
03E0
0FF0
0E10
1C00
1800
1800
1800
1800
1800
7FC0
7FC0
1800
1800
1800
1800
1800
FFF0
FFF0
ENDCHAR
STARTCHAR 00A4
ENCODING 164
SWIDTH 600 0
DWIDTH 15 0
BBX 10 10 3 3
BITMAP
8040
6DC0
7F80
3300
6180
6180
3300
7F80
6D80
C040
ENDCHAR
STARTCHAR 00A5
ENCODING 165
SWIDTH 600 0
DWIDTH 15 0
BBX 14 18 0 0
BITMAP
E01C
6018
3030
3870
1860
0CC0
7CF8
7FF8
0780
0300
7FF8
7FF8
0300
0300
0300
0300
0300
0300
ENDCHAR
STARTCHAR 00A6
ENCODING 166
SWIDTH 600 0
DWIDTH 15 0
BBX 2 21 6 -4
BITMAP
C0
C0
C0
C0
C0
C0
C0
C0
C0
00
00
00
C0
C0
C0
C0
C0
C0
C0
C0
C0
ENDCHAR
STARTCHAR 00A7
ENCODING 167
SWIDTH 600 0
DWIDTH 15 0
BBX 10 20 2 -2
BITMAP
1F00
3F80
7080
6000
6000
3000
3C00
6F00
C380
C1C0
E0C0
70C0
3D80
0F00
0300
0180
0180
4380
7F00
3E00
ENDCHAR
STARTCHAR 00A8
ENCODING 168
SWIDTH 600 0
DWIDTH 15 0
BBX 8 3 4 16
BITMAP
E7
E7
E7
ENDCHAR
STARTCHAR 00A9
ENCODING 169
SWIDTH 600 0
DWIDTH 15 0
BBX 15 15 0 2
BITMAP
07C0
1830
2008
43C4
4C24
9802
9802
9802
9802
9802
4C24
47C4
2008
1830
07C0
ENDCHAR
STARTCHAR 00AA
ENCODING 170
SWIDTH 600 0
DWIDTH 15 0
BBX 9 12 3 6
BITMAP
3E00
4300
0180
0180
3F80
E180
C180
C380
E380
7D80
0000
FF80
ENDCHAR
STARTCHAR 00AB
ENCODING 171
SWIDTH 600 0
DWIDTH 15 0
BBX 12 11 1 2
BITMAP
0410
0C30
1C70
38E0
6180
C300
6180
38C0
1C70
0C30
0410
ENDCHAR
STARTCHAR 00AC
ENCODING 172
SWIDTH 600 0
DWIDTH 15 0
BBX 13 6 1 5
BITMAP
FFF8
FFF8
0018
0018
0018
0018
ENDCHAR
STARTCHAR 00AD
ENCODING 173
SWIDTH 600 0
DWIDTH 15 0
BBX 6 2 4 6
BITMAP
FC
FC
ENDCHAR
STARTCHAR 00AE
ENCODING 174
SWIDTH 600 0
DWIDTH 15 0
BBX 15 15 0 2
BITMAP
07C0
1830
2008
4FC4
4C64
8C62
8C62
8FC2
8D82
8CC2
4CE4
4C74
2008
1830
07C0
ENDCHAR
STARTCHAR 00AF
ENCODING 175
SWIDTH 600 0
DWIDTH 15 0
BBX 7 2 4 17
BITMAP
FE
FE
ENDCHAR
STARTCHAR 00B0
ENCODING 176
SWIDTH 600 0
DWIDTH 15 0
BBX 8 8 4 10
BITMAP
3C
7E
E7
C3
C3
E7
7E
3C
ENDCHAR
STARTCHAR 00B1
ENCODING 177
SWIDTH 600 0
DWIDTH 15 0
BBX 12 14 2 0
BITMAP
0600
0600
0600
0600
FFF0
FFF0
0600
0600
0600
0600
0000
0000
FFF0
FFF0
ENDCHAR
STARTCHAR 00B2
ENCODING 178
SWIDTH 600 0
DWIDTH 15 0
BBX 7 10 4 8
BITMAP
78
8E
06
06
0E
1C
38
70
E0
FE
ENDCHAR
STARTCHAR 00B3
ENCODING 179
SWIDTH 600 0
DWIDTH 15 0
BBX 7 10 4 8
BITMAP
7C
8E
06
06
38
0E
06
06
8E
78
ENDCHAR
STARTCHAR 00B4
ENCODING 180
SWIDTH 600 0
DWIDTH 15 0
BBX 6 5 6 15
BITMAP
1C
38
30
60
C0
ENDCHAR
STARTCHAR 00B5
ENCODING 181
SWIDTH 600 0
DWIDTH 15 0
BBX 12 19 2 -5
BITMAP
C0C0
C0C0
C0C0
C0C0
C0C0
C0C0
C0C0
C0C0
C0C0
C0C0
C0C0
E1C0
FFF0
DE70
C000
C000
C000
C000
C000
ENDCHAR
STARTCHAR 00B6
ENCODING 182
SWIDTH 600 0
DWIDTH 15 0
BBX 12 20 1 -2
BITMAP
1FF0
3FF0
7F30
FF30
FF30
FF30
FF30
7F30
3F30
1F30
0330
0330
0330
0330
0330
0330
0330
0330
0330
0330
ENDCHAR
STARTCHAR 00B7
ENCODING 183
SWIDTH 600 0
DWIDTH 15 0
BBX 3 4 6 7
BITMAP
E0
E0
E0
E0
ENDCHAR
STARTCHAR 00B8
ENCODING 184
SWIDTH 600 0
DWIDTH 15 0
BBX 5 5 5 -5
BITMAP
10
18
18
F8
F0
ENDCHAR
STARTCHAR 00B9
ENCODING 185
SWIDTH 600 0
DWIDTH 15 0
BBX 8 10 4 8
BITMAP
78
18
18
18
18
18
18
18
18
FF
ENDCHAR
STARTCHAR 00BA
ENCODING 186
SWIDTH 600 0
DWIDTH 15 0
BBX 9 12 3 6
BITMAP
3E00
6300
C100
C180
C180
C180
C180
C180
6300
3E00
0000
FF80
ENDCHAR
STARTCHAR 00BB
ENCODING 187
SWIDTH 600 0
DWIDTH 15 0
BBX 12 11 2 2
BITMAP
8200
C300
E380
71C0
1860
0C30
1860
71C0
E380
C300
8200
ENDCHAR
STARTCHAR 00BC
ENCODING 188
SWIDTH 600 0
DWIDTH 15 0
BBX 13 23 0 -3
BITMAP
3C00
0C00
0C00
0C00
0C00
0C00
0C00
0C00
0C00
7F98
03E0
3E00
C000
0060
00E0
00E0
0160
0360
0260
0460
07F0
0060
0060
ENDCHAR
STARTCHAR 00BD
ENCODING 189
SWIDTH 600 0
DWIDTH 15 0
BBX 13 23 0 -3
BITMAP
3C00
0C00
0C00
0C00
0C00
0C00
0C00
0C00
0C00
7F98
03E0
3E00
C000
01E0
0238
0018
0018
0038
0070
00E0
01C0
0380
03F8
ENDCHAR
STARTCHAR 00BE
ENCODING 190
SWIDTH 600 0
DWIDTH 15 0
BBX 13 23 0 -3
BITMAP
3E00
4700
0300
0300
1C00
0700
0300
0300
4700
3C18
03E0
3E00
C000
0060
00E0
00E0
0160
0360
0260
0460
07F0
0060
0060
ENDCHAR
STARTCHAR 00BF
ENCODING 191
SWIDTH 600 0
DWIDTH 15 0
BBX 10 18 2 0
BITMAP
0600
0600
0600
0000
0000
0600
0600
0600
0E00
3C00
7800
6000
C000
C000
C040
E1C0
7F80
3F00
ENDCHAR
STARTCHAR 00C0
ENCODING 192
SWIDTH 600 0
DWIDTH 15 0
BBX 14 23 1 0
BITMAP
0E00
0300
0380
0000
0000
0780
0780
0780
0FC0
0CC0
0CC0
0CC0
1860
1860
1860
3030
3FF0
3FF0
6018
6018
6018
E01C
C00C
ENDCHAR
STARTCHAR 00C1
ENCODING 193
SWIDTH 600 0
DWIDTH 15 0
BBX 14 23 1 0
BITMAP
01C0
0380
0700
0000
0000
0780
0780
0780
0FC0
0CC0
0CC0
0CC0
1860
1860
1860
3030
3FF0
3FF0
6018
6018
6018
E01C
C00C
ENDCHAR
STARTCHAR 00C2
ENCODING 194
SWIDTH 600 0
DWIDTH 15 0
BBX 14 23 1 0
BITMAP
0700
0D80
18C0
0000
0000
0780
0780
0780
0FC0
0CC0
0CC0
0CC0
1860
1860
1860
3030
3FF0
3FF0
6018
6018
6018
E01C
C00C
ENDCHAR
STARTCHAR 00C3
ENCODING 195
SWIDTH 600 0
DWIDTH 15 0
BBX 14 24 1 0
BITMAP
0E60
1FE0
19C0
0000
0000
0000
0780
0780
0780
0FC0
0CC0
0CC0
0CC0
1860
1860
1860
3030
3FF0
3FF0
6018
6018
6018
E01C
C00C
ENDCHAR
STARTCHAR 00C4
ENCODING 196
SWIDTH 600 0
DWIDTH 15 0
BBX 14 24 1 0
BITMAP
1CE0
1CE0
1CE0
0000
0000
0000
0780
0780
0780
0FC0
0CC0
0CC0
0CC0
1860
1860
1860
3030
3FF0
3FF0
6018
6018
6018
E01C
C00C
ENDCHAR
STARTCHAR 00C5
ENCODING 197
SWIDTH 600 0
DWIDTH 15 0
BBX 14 23 1 0
BITMAP
0780
0FC0
0CC0
0CC0
0CC0
0780
0300
0780
0780
0780
0FC0
0CC0
0CC0
1860
1860
1860
3FF0
3FF0
3030
6018
6018
6018
C00C
ENDCHAR
STARTCHAR 00C6
ENCODING 198
SWIDTH 600 0
DWIDTH 15 0
BBX 15 18 0 0
BITMAP
07FE
07FE
0EC0
0CC0
0CC0
0CC0
18C0
18FC
18FC
38C0
30C0
3FC0
3FC0
60C0
60C0
60C0
E0FE
C0FE
ENDCHAR
STARTCHAR 00C7
ENCODING 199
SWIDTH 600 0
DWIDTH 15 0
BBX 12 23 1 -5
BITMAP
07E0
1FF0
3830
7010
6000
C000
C000
C000
C000
C000
C000
C000
C000
6000
7010
3830
1FF0
07E0
0080
00C0
00C0
07C0
0780
ENDCHAR
STARTCHAR 00C8
ENCODING 200
SWIDTH 600 0
DWIDTH 15 0
BBX 12 23 1 0
BITMAP
0E00
0300
0380
0000
0000
FFF0
FFF0
C000
C000
C000
C000
C000
FFE0
FFE0
C000
C000
C000
C000
C000
C000
C000
FFF0
FFF0
ENDCHAR
STARTCHAR 00C9
ENCODING 201
SWIDTH 600 0
DWIDTH 15 0
BBX 12 23 1 0
BITMAP
01C0
0380
0700
0000
0000
FFF0
FFF0
C000
C000
C000
C000
C000
FFE0
FFE0
C000
C000
C000
C000
C000
C000
C000
FFF0
FFF0
ENDCHAR
STARTCHAR 00CA
ENCODING 202
SWIDTH 600 0
DWIDTH 15 0
BBX 12 23 1 0
BITMAP
0700
0D80
18C0
0000
0000
FFF0
FFF0
C000
C000
C000
C000
C000
FFE0
FFE0
C000
C000
C000
C000
C000
C000
C000
FFF0
FFF0
ENDCHAR
STARTCHAR 00CB
ENCODING 203
SWIDTH 600 0
DWIDTH 15 0
BBX 12 24 1 0
BITMAP
1CE0
1CE0
1CE0
0000
0000
0000
FFF0
FFF0
C000
C000
C000
C000
C000
FFE0
FFE0
C000
C000
C000
C000
C000
C000
C000
FFF0
FFF0
ENDCHAR
STARTCHAR 00CC
ENCODING 204
SWIDTH 600 0
DWIDTH 15 0
BBX 10 23 2 0
BITMAP
1C00
0600
0700
0000
0000
FFC0
FFC0
0C00
0C00
0C00
0C00
0C00
0C00
0C00
0C00
0C00
0C00
0C00
0C00
0C00
0C00
FFC0
FFC0
ENDCHAR
STARTCHAR 00CD
ENCODING 205
SWIDTH 600 0
DWIDTH 15 0
BBX 10 23 2 0
BITMAP
0380
0700
0E00
0000
0000
FFC0
FFC0
0C00
0C00
0C00
0C00
0C00
0C00
0C00
0C00
0C00
0C00
0C00
0C00
0C00
0C00
FFC0
FFC0
ENDCHAR
STARTCHAR 00CE
ENCODING 206
SWIDTH 600 0
DWIDTH 15 0
BBX 10 23 2 0
BITMAP
0E00
1B00
3180
0000
0000
FFC0
FFC0
0C00
0C00
0C00
0C00
0C00
0C00
0C00
0C00
0C00
0C00
0C00
0C00
0C00
0C00
FFC0
FFC0
ENDCHAR
STARTCHAR 00CF
ENCODING 207
SWIDTH 600 0
DWIDTH 15 0
BBX 10 24 2 0
BITMAP
39C0
39C0
39C0
0000
0000
0000
FFC0
FFC0
0C00
0C00
0C00
0C00
0C00
0C00
0C00
0C00
0C00
0C00
0C00
0C00
0C00
0C00
FFC0
FFC0
ENDCHAR
STARTCHAR 00D0
ENCODING 208
SWIDTH 600 0
DWIDTH 15 0
BBX 13 18 0 0
BITMAP
7F00
7FC0
60E0
6070
6030
6018
6018
6018
FC18
FC18
6018
6018
6018
6030
6070
60E0
7FC0
7F00
ENDCHAR
STARTCHAR 00D1
ENCODING 209
SWIDTH 600 0
DWIDTH 15 0
BBX 12 24 1 0
BITMAP
0E60
1FE0
19C0
0000
0000
0000
E030
F030
F030
F830
D830
D830
CC30
CC30
C630
C630
C330
C330
C1B0
C1B0
C1F0
C0F0
C0F0
C070
ENDCHAR
STARTCHAR 00D2
ENCODING 210
SWIDTH 600 0
DWIDTH 15 0
BBX 12 23 1 0
BITMAP
0E00
0300
0380
0000
0000
0F00
3FC0
70E0
6060
E060
C030
C030
C030
C030
C030
C030
C030
C030
E070
6060
70E0
3FC0
1F80
ENDCHAR
STARTCHAR 00D3
ENCODING 211
SWIDTH 600 0
DWIDTH 15 0
BBX 12 23 1 0
BITMAP
01C0
0380
0700
0000
0000
0F00
3FC0
70E0
6060
E060
C030
C030
C030
C030
C030
C030
C030
C030
E070
6060
70E0
3FC0
1F80
ENDCHAR
STARTCHAR 00D4
ENCODING 212
SWIDTH 600 0
DWIDTH 15 0
BBX 12 23 1 0
BITMAP
0700
0D80
18C0
0000
0000
0F00
3FC0
70E0
6060
E060
C030
C030
C030
C030
C030
C030
C030
C030
E070
6060
70E0
3FC0
1F80
ENDCHAR
STARTCHAR 00D5
ENCODING 213
SWIDTH 600 0
DWIDTH 15 0
BBX 12 24 1 0
BITMAP
0E60
1FE0
19C0
0000
0000
0000
0F00
3FC0
70E0
6060
E060
C030
C030
C030
C030
C030
C030
C030
C030
E070
6060
70E0
3FC0
1F80
ENDCHAR
STARTCHAR 00D6
ENCODING 214
SWIDTH 600 0
DWIDTH 15 0
BBX 12 24 1 0
BITMAP
1CE0
1CE0
1CE0
0000
0000
0000
0F00
3FC0
70E0
6060
E060
C030
C030
C030
C030
C030
C030
C030
C030
E070
6060
70E0
3FC0
1F80
ENDCHAR
STARTCHAR 00D7
ENCODING 215
SWIDTH 600 0
DWIDTH 15 0
BBX 11 11 2 3
BITMAP
4040
E0E0
71C0
3B80
1F00
0E00
1F00
3B80
71C0
E0E0
4040
ENDCHAR
STARTCHAR 00D8
ENCODING 216
SWIDTH 600 0
DWIDTH 15 0
BBX 14 18 0 0
BITMAP
07CC
1FE8
3878
3030
7038
6078
60D8
6198
6318
6718
6618
6C18
7818
7030
3030
7870
5FE0
CF80
ENDCHAR
STARTCHAR 00D9
ENCODING 217
SWIDTH 600 0
DWIDTH 15 0
BBX 12 23 1 0
BITMAP
0E00
0300
0380
0000
0000
C030
C030
C030
C030
C030
C030
C030
C030
C030
C030
C030
C030
C030
C030
C030
70E0
3FC0
1F80
ENDCHAR
STARTCHAR 00DA
ENCODING 218
SWIDTH 600 0
DWIDTH 15 0
BBX 12 23 1 0
BITMAP
01C0
0380
0700
0000
0000
C030
C030
C030
C030
C030
C030
C030
C030
C030
C030
C030
C030
C030
C030
C030
70E0
3FC0
1F80
ENDCHAR
STARTCHAR 00DB
ENCODING 219
SWIDTH 600 0
DWIDTH 15 0
BBX 12 23 1 0
BITMAP
0700
0D80
18C0
0000
0000
C030
C030
C030
C030
C030
C030
C030
C030
C030
C030
C030
C030
C030
C030
C030
70E0
3FC0
1F80
ENDCHAR
STARTCHAR 00DC
ENCODING 220
SWIDTH 600 0
DWIDTH 15 0
BBX 12 24 1 0
BITMAP
1CE0
1CE0
1CE0
0000
0000
0000
C030
C030
C030
C030
C030
C030
C030
C030
C030
C030
C030
C030
C030
C030
C030
70E0
3FC0
1F80
ENDCHAR
STARTCHAR 00DD
ENCODING 221
SWIDTH 600 0
DWIDTH 15 0
BBX 14 23 0 0
BITMAP
00E0
01C0
0380
0000
0000
E01C
6018
3038
3030
1860
1CE0
0CC0
0780
0780
0300
0300
0300
0300
0300
0300
0300
0300
0300
ENDCHAR
STARTCHAR 00DE
ENCODING 222
SWIDTH 600 0
DWIDTH 15 0
BBX 12 18 1 0
BITMAP
C000
C000
C000
FF80
FFE0
C0E0
C030
C030
C030
C030
C0E0
FFE0
FF80
C000
C000
C000
C000
C000
ENDCHAR
STARTCHAR 00DF
ENCODING 223
SWIDTH 600 0
DWIDTH 15 0
BBX 12 19 2 0
BITMAP
1F00
7FC0
E0C0
C060
C060
C380
C600
CC00
CC00
CF00
C7C0
C3E0
C060
C030
C030
C030
D070
DFE0
CF80
ENDCHAR
STARTCHAR 00E0
ENCODING 224
SWIDTH 600 0
DWIDTH 15 0
BBX 12 20 2 0
BITMAP
7000
3800
1800
0C00
0600
0000
1F80
7FE0
6060
0030
0030
1FF0
7FF0
F030
C030
C030
C070
E0F0
7FB0
3F30
ENDCHAR
STARTCHAR 00E1
ENCODING 225
SWIDTH 600 0
DWIDTH 15 0
BBX 12 20 2 0
BITMAP
01C0
0380
0300
0600
0C00
0000
1F80
7FE0
6060
0030
0030
1FF0
7FF0
F030
C030
C030
C070
E0F0
7FB0
3F30
ENDCHAR
STARTCHAR 00E2
ENCODING 226
SWIDTH 600 0
DWIDTH 15 0
BBX 12 20 2 0
BITMAP
0600
0F00
0900
1980
30C0
0000
1F80
7FE0
6060
0030
0030
1FF0
7FF0
F030
C030
C030
C070
E0F0
7FB0
3F30
ENDCHAR
STARTCHAR 00E3
ENCODING 227
SWIDTH 600 0
DWIDTH 15 0
BBX 12 19 2 0
BITMAP
1CC0
3CC0
33C0
3380
0000
1F80
7FE0
6060
0030
0030
1FF0
7FF0
F030
C030
C030
C070
E0F0
7FB0
3F30
ENDCHAR
STARTCHAR 00E4
ENCODING 228
SWIDTH 600 0
DWIDTH 15 0
BBX 12 19 2 0
BITMAP
39C0
39C0
39C0
0000
0000
1F80
7FE0
6060
0030
0030
1FF0
7FF0
F030
C030
C030
C070
E0F0
7FB0
3F30
ENDCHAR
STARTCHAR 00E5
ENCODING 229
SWIDTH 600 0
DWIDTH 15 0
BBX 12 22 2 0
BITMAP
0E00
1F00
3180
3180
3180
1F00
0E00
0000
1F80
7FE0
6060
0030
0030
1FF0
7FF0
F030
C030
C030
C070
E0F0
7FB0
3F30
ENDCHAR
STARTCHAR 00E6
ENCODING 230
SWIDTH 600 0
DWIDTH 15 0
BBX 14 14 1 0
BITMAP
3CF0
7FF8
479C
030C
030C
030C
3FFC
7FFC
E300
C300
C300
E784
7FFC
3CF8
ENDCHAR
STARTCHAR 00E7
ENCODING 231
SWIDTH 600 0
DWIDTH 15 0
BBX 11 19 2 -5
BITMAP
0F80
3FC0
7060
6020
C000
C000
C000
C000
C000
C000
6000
7020
3FE0
0FC0
0100
0180
0180
0F80
0F00
ENDCHAR
STARTCHAR 00E8
ENCODING 232
SWIDTH 600 0
DWIDTH 15 0
BBX 12 20 2 0
BITMAP
7000
3800
1800
0C00
0600
0000
0F80
3FC0
70E0
6060
C030
C030
FFF0
FFF0
C000
C000
6000
7060
3FE0
0FC0
ENDCHAR
STARTCHAR 00E9
ENCODING 233
SWIDTH 600 0
DWIDTH 15 0
BBX 12 20 2 0
BITMAP
01C0
0380
0300
0600
0C00
0000
0F80
3FC0
70E0
6060
C030
C030
FFF0
FFF0
C000
C000
6000
7060
3FE0
0FC0
ENDCHAR
STARTCHAR 00EA
ENCODING 234
SWIDTH 600 0
DWIDTH 15 0
BBX 12 20 2 0
BITMAP
0600
0F00
0900
1980
30C0
0000
0F80
3FC0
70E0
6060
C030
C030
FFF0
FFF0
C000
C000
6000
7060
3FE0
0FC0
ENDCHAR
STARTCHAR 00EB
ENCODING 235
SWIDTH 600 0
DWIDTH 15 0
BBX 12 19 2 0
BITMAP
39C0
39C0
39C0
0000
0000
0F80
3FC0
70E0
6060
C030
C030
FFF0
FFF0
C000
C000
6000
7060
3FE0
0FC0
ENDCHAR
STARTCHAR 00EC
ENCODING 236
SWIDTH 600 0
DWIDTH 15 0
BBX 10 20 3 0
BITMAP
E000
7000
3000
1800
0C00
0000
FC00
FC00
0C00
0C00
0C00
0C00
0C00
0C00
0C00
0C00
0C00
0C00
FFC0
FFC0
ENDCHAR
STARTCHAR 00ED
ENCODING 237
SWIDTH 600 0
DWIDTH 15 0
BBX 10 20 3 0
BITMAP
0380
0700
0600
0C00
1800
0000
FC00
FC00
0C00
0C00
0C00
0C00
0C00
0C00
0C00
0C00
0C00
0C00
FFC0
FFC0
ENDCHAR
STARTCHAR 00EE
ENCODING 238
SWIDTH 600 0
DWIDTH 15 0
BBX 10 20 3 0
BITMAP
0C00
1E00
1200
3300
6180
0000
FC00
FC00
0C00
0C00
0C00
0C00
0C00
0C00
0C00
0C00
0C00
0C00
FFC0
FFC0
ENDCHAR
STARTCHAR 00EF
ENCODING 239
SWIDTH 600 0
DWIDTH 15 0
BBX 10 19 3 0
BITMAP
7380
7380
7380
0000
0000
FC00
FC00
0C00
0C00
0C00
0C00
0C00
0C00
0C00
0C00
0C00
0C00
FFC0
FFC0
ENDCHAR
STARTCHAR 00F0
ENCODING 240
SWIDTH 600 0
DWIDTH 15 0
BBX 12 19 2 0
BITMAP
3800
1CE0
0F80
3F00
6380
01C0
1FC0
3FE0
7060
E070
C030
C030
C030
C030
C030
E060
70E0
3FC0
1F80
ENDCHAR
STARTCHAR 00F1
ENCODING 241
SWIDTH 600 0
DWIDTH 15 0
BBX 10 19 2 0
BITMAP
1CC0
3CC0
33C0
3380
0000
CF00
DF80
F1C0
E0C0
C0C0
C0C0
C0C0
C0C0
C0C0
C0C0
C0C0
C0C0
C0C0
C0C0
ENDCHAR
STARTCHAR 00F2
ENCODING 242
SWIDTH 600 0
DWIDTH 15 0
BBX 12 20 2 0
BITMAP
7000
3800
1800
0C00
0600
0000
1F80
3FC0
70E0
6060
C030
C030
C030
C030
C030
C030
6060
70E0
3FC0
1F80
ENDCHAR
STARTCHAR 00F3
ENCODING 243
SWIDTH 600 0
DWIDTH 15 0
BBX 12 20 2 0
BITMAP
01C0
0380
0300
0600
0C00
0000
1F80
3FC0
70E0
6060
C030
C030
C030
C030
C030
C030
6060
70E0
3FC0
1F80
ENDCHAR
STARTCHAR 00F4
ENCODING 244
SWIDTH 600 0
DWIDTH 15 0
BBX 12 20 2 0
BITMAP
0600
0F00
0900
1980
30C0
0000
1F80
3FC0
70E0
6060
C030
C030
C030
C030
C030
C030
6060
70E0
3FC0
1F80
ENDCHAR
STARTCHAR 00F5
ENCODING 245
SWIDTH 600 0
DWIDTH 15 0
BBX 12 19 2 0
BITMAP
1CC0
3CC0
33C0
3380
0000
1F80
3FC0
70E0
6060
C030
C030
C030
C030
C030
C030
6060
70E0
3FC0
1F80
ENDCHAR
STARTCHAR 00F6
ENCODING 246
SWIDTH 600 0
DWIDTH 15 0
BBX 12 19 2 0
BITMAP
39C0
39C0
39C0
0000
0000
1F80
3FC0
70E0
6060
C030
C030
C030
C030
C030
C030
6060
70E0
3FC0
1F80
ENDCHAR
STARTCHAR 00F7
ENCODING 247
SWIDTH 600 0
DWIDTH 15 0
BBX 13 12 1 2
BITMAP
0700
0700
0700
0000
0000
FFF8
FFF8
0000
0000
0700
0700
0700
ENDCHAR
STARTCHAR 00F8
ENCODING 248
SWIDTH 600 0
DWIDTH 15 0
BBX 14 14 1 0
BITMAP
0FCC
1FF8
3870
3078
60F8
61D8
6398
6718
6E18
7C18
7830
3870
7FE0
CFC0
ENDCHAR
STARTCHAR 00F9
ENCODING 249
SWIDTH 600 0
DWIDTH 15 0
BBX 10 20 2 0
BITMAP
7000
3800
1800
0C00
0600
0000
C0C0
C0C0
C0C0
C0C0
C0C0
C0C0
C0C0
C0C0
C0C0
C0C0
C1C0
E3C0
7EC0
3CC0
ENDCHAR
STARTCHAR 00FA
ENCODING 250
SWIDTH 600 0
DWIDTH 15 0
BBX 10 20 2 0
BITMAP
01C0
0380
0300
0600
0C00
0000
C0C0
C0C0
C0C0
C0C0
C0C0
C0C0
C0C0
C0C0
C0C0
C0C0
C1C0
E3C0
7EC0
3CC0
ENDCHAR
STARTCHAR 00FB
ENCODING 251
SWIDTH 600 0
DWIDTH 15 0
BBX 10 20 2 0
BITMAP
0600
0F00
0900
1980
30C0
0000
C0C0
C0C0
C0C0
C0C0
C0C0
C0C0
C0C0
C0C0
C0C0
C0C0
C1C0
E3C0
7EC0
3CC0
ENDCHAR
STARTCHAR 00FC
ENCODING 252
SWIDTH 600 0
DWIDTH 15 0
BBX 10 19 2 0
BITMAP
39C0
39C0
39C0
0000
0000
C0C0
C0C0
C0C0
C0C0
C0C0
C0C0
C0C0
C0C0
C0C0
C0C0
C1C0
E3C0
7EC0
3CC0
ENDCHAR
STARTCHAR 00FD
ENCODING 253
SWIDTH 600 0
DWIDTH 15 0
BBX 13 25 1 -5
BITMAP
00E0
01C0
0180
0300
0600
0000
C018
6030
6030
7070
3060
3060
18C0
18C0
1DC0
0D80
0D80
0700
0700
0700
0600
0600
0E00
7C00
7800
ENDCHAR
STARTCHAR 00FE
ENCODING 254
SWIDTH 600 0
DWIDTH 15 0
BBX 12 24 2 -5
BITMAP
C000
C000
C000
C000
C000
CF80
FFC0
F0E0
E060
C030
C030
C030
C030
C030
C030
E060
F0E0
FFC0
CF80
C000
C000
C000
C000
C000
ENDCHAR
STARTCHAR 00FF
ENCODING 255
SWIDTH 600 0
DWIDTH 15 0
BBX 13 24 1 -5
BITMAP
1CE0
1CE0
1CE0
0000
0000
C018
6030
6030
7070
3060
3060
18C0
18C0
1DC0
0D80
0D80
0700
0700
0700
0600
0600
0E00
7C00
7800
ENDCHAR
STARTCHAR 0106
ENCODING 262
SWIDTH 600 0
DWIDTH 15 0
BBX 12 23 1 0
BITMAP
00E0
01C0
0380
0000
0000
07E0
1FF0
3830
7010
6000
C000
C000
C000
C000
C000
C000
C000
C000
6000
7010
3830
1FF0
07E0
ENDCHAR
STARTCHAR 0107
ENCODING 263
SWIDTH 600 0
DWIDTH 15 0
BBX 11 20 2 0
BITMAP
00E0
01C0
0180
0300
0600
0000
0F80
3FC0
7060
6020
C000
C000
C000
C000
C000
C000
6000
7020
3FE0
0FC0
ENDCHAR
STARTCHAR 010C
ENCODING 268
SWIDTH 600 0
DWIDTH 15 0
BBX 12 23 1 0
BITMAP
0C60
06C0
0380
0000
0000
07E0
1FF0
3830
7010
6000
C000
C000
C000
C000
C000
C000
C000
C000
6000
7010
3830
1FF0
07E0
ENDCHAR
STARTCHAR 010D
ENCODING 269
SWIDTH 600 0
DWIDTH 15 0
BBX 11 20 2 0
BITMAP
1860
0CC0
0480
0780
0300
0000
0F80
3FC0
7060
6020
C000
C000
C000
C000
C000
C000
6000
7020
3FE0
0FC0
ENDCHAR
STARTCHAR 0111
ENCODING 273
SWIDTH 600 0
DWIDTH 15 0
BBX 14 19 2 0
BITMAP
0030
0030
03FC
03FC
0030
1F30
3FB0
70F0
6070
C030
C030
C030
C030
C030
C030
6070
70F0
3FF0
1F30
ENDCHAR
STARTCHAR 011E
ENCODING 286
SWIDTH 600 0
DWIDTH 15 0
BBX 12 24 1 0
BITMAP
1860
1FE0
0780
0000
0000
0000
0FC0
1FE0
3860
6020
6000
C000
C000
C000
C1F0
C1F0
C030
C030
C030
6030
6030
3870
1FF0
0FC0
ENDCHAR
STARTCHAR 011F
ENCODING 287
SWIDTH 600 0
DWIDTH 15 0
BBX 12 25 2 -5
BITMAP
30C0
39C0
1F80
0F00
0000
0000
1F30
3FB0
70F0
6070
C030
C030
C030
C030
C030
C030
6070
70F0
3FB0
1F30
0030
0030
2060
3FC0
1F80
ENDCHAR
STARTCHAR 0130
ENCODING 304
SWIDTH 600 0
DWIDTH 15 0
BBX 10 24 2 0
BITMAP
0E00
0E00
0E00
0000
0000
0000
FFC0
FFC0
0C00
0C00
0C00
0C00
0C00
0C00
0C00
0C00
0C00
0C00
0C00
0C00
0C00
0C00
FFC0
FFC0
ENDCHAR
STARTCHAR 0131
ENCODING 305
SWIDTH 600 0
DWIDTH 15 0
BBX 10 14 3 0
BITMAP
FC00
FC00
0C00
0C00
0C00
0C00
0C00
0C00
0C00
0C00
0C00
0C00
FFC0
FFC0
ENDCHAR
STARTCHAR 0141
ENCODING 321
SWIDTH 600 0
DWIDTH 15 0
BBX 13 18 0 0
BITMAP
6000
6000
6000
6000
6000
6300
6700
7C00
7800
6000
E000
E000
6000
6000
6000
6000
7FF8
7FF8
ENDCHAR
STARTCHAR 0142
ENCODING 322
SWIDTH 600 0
DWIDTH 15 0
BBX 12 19 1 0
BITMAP
7E00
7E00
0600
0600
0600
0670
06E0
0780
0700
0E00
3E00
F600
4600
0600
0600
0600
0700
03F0
01F0
ENDCHAR
STARTCHAR 0152
ENCODING 338
SWIDTH 600 0
DWIDTH 15 0
BBX 14 18 1 0
BITMAP
1FFC
3FFC
7180
6180
C180
C180
C180
C1F8
C1F8
C180
C180
C180
C180
C180
6180
7180
3FFC
1FFC
ENDCHAR
STARTCHAR 0153
ENCODING 339
SWIDTH 600 0
DWIDTH 15 0
BBX 15 14 0 0
BITMAP
3E78
7FFC
63CE
C186
C186
C186
C1FE
C1FE
C180
C180
C180
63C2
7FFE
3E7C
ENDCHAR
STARTCHAR 015E
ENCODING 350
SWIDTH 600 0
DWIDTH 15 0
BBX 12 23 1 -5
BITMAP
1F80
3FE0
7060
C020
C000
C000
E000
7000
3F00
0FC0
00E0
0030
0030
0030
8030
E0E0
FFE0
3F80
0100
0180
0180
0F80
0F00
ENDCHAR
STARTCHAR 015F
ENCODING 351
SWIDTH 600 0
DWIDTH 15 0
BBX 10 19 3 -5
BITMAP
3F00
7F80
E080
C000
C000
E000
7F00
1F80
01C0
00C0
00C0
C1C0
FF80
7E00
0400
0600
0600
3E00
3C00
ENDCHAR
STARTCHAR 0160
ENCODING 352
SWIDTH 600 0
DWIDTH 15 0
BBX 12 23 1 0
BITMAP
18C0
0D80
0700
0000
0000
1F80
3FE0
7060
C020
C000
C000
E000
7000
3F00
0FC0
00E0
0030
0030
0030
8030
E0E0
FFE0
3F80
ENDCHAR
STARTCHAR 0161
ENCODING 353
SWIDTH 600 0
DWIDTH 15 0
BBX 10 20 3 0
BITMAP
6180
3300
1200
1E00
0C00
0000
3F00
7F80
E080
C000
C000
E000
7F00
1F80
01C0
00C0
00C0
C1C0
FF80
7E00
ENDCHAR
STARTCHAR 0178
ENCODING 376
SWIDTH 600 0
DWIDTH 15 0
BBX 14 24 0 0
BITMAP
0E70
0E70
0E70
0000
0000
0000
E01C
6018
3038
3030
1860
1CE0
0CC0
0780
0780
0300
0300
0300
0300
0300
0300
0300
0300
0300
ENDCHAR
STARTCHAR 017D
ENCODING 381
SWIDTH 600 0
DWIDTH 15 0
BBX 12 23 1 0
BITMAP
18C0
0D80
0700
0000
0000
FFF0
FFF0
0070
00E0
00C0
01C0
0380
0300
0700
0E00
0C00
1C00
3800
3000
7000
E000
FFF0
FFF0
ENDCHAR
STARTCHAR 017E
ENCODING 382
SWIDTH 600 0
DWIDTH 15 0
BBX 10 20 2 0
BITMAP
30C0
1980
0900
0F00
0600
0000
FFC0
FFC0
01C0
0380
0300
0600
0E00
1C00
1800
3000
7000
E000
FFC0
FFC0
ENDCHAR
STARTCHAR 0192
ENCODING 402
SWIDTH 600 0
DWIDTH 15 0
BBX 15 24 0 -5
BITMAP
001C
007E
0062
00C0
00C0
00C0
00C0
01C0
0180
0FF8
0FF8
0180
0180
0380
0300
0300
0300
0300
0700
0600
0600
8E00
FC00
7800
ENDCHAR
STARTCHAR 02C6
ENCODING 710
SWIDTH 600 0
DWIDTH 15 0
BBX 8 5 4 15
BITMAP
18
3C
24
66
C3
ENDCHAR
STARTCHAR 02C7
ENCODING 711
SWIDTH 600 0
DWIDTH 15 0
BBX 8 5 4 15
BITMAP
C3
66
24
3C
18
ENDCHAR
STARTCHAR 02D8
ENCODING 728
SWIDTH 600 0
DWIDTH 15 0
BBX 8 4 4 16
BITMAP
C3
E7
7E
3C
ENDCHAR
STARTCHAR 02D9
ENCODING 729
SWIDTH 600 0
DWIDTH 15 0
BBX 3 3 6 16
BITMAP
E0
E0
E0
ENDCHAR
STARTCHAR 02DA
ENCODING 730
SWIDTH 600 0
DWIDTH 15 0
BBX 7 7 4 15
BITMAP
38
7C
C6
C6
C6
7C
38
ENDCHAR
STARTCHAR 02DB
ENCODING 731
SWIDTH 600 0
DWIDTH 15 0
BBX 5 5 5 -5
BITMAP
40
C0
C0
F8
78
ENDCHAR
STARTCHAR 02DC
ENCODING 732
SWIDTH 600 0
DWIDTH 15 0
BBX 8 4 4 15
BITMAP
73
F3
CF
CE
ENDCHAR
STARTCHAR 02DD
ENCODING 733
SWIDTH 600 0
DWIDTH 15 0
BBX 8 5 4 15
BITMAP
33
66
6C
4C
D8
ENDCHAR
STARTCHAR 03A9
ENCODING 937
SWIDTH 600 0
DWIDTH 15 0
BBX 13 17 1 0
BITMAP
0F80
3FE0
7060
6030
E030
C018
C018
C018
C018
C018
C018
C038
6030
6030
3060
F8F8
F8F8
ENDCHAR
STARTCHAR 03C0
ENCODING 960
SWIDTH 600 0
DWIDTH 15 0
BBX 14 13 1 0
BITMAP
FFFC
FFFC
3030
3030
3030
3030
3030
3030
3030
3030
3030
303C
301C
ENDCHAR
STARTCHAR 2013
ENCODING 8211
SWIDTH 600 0
DWIDTH 15 0
BBX 15 2 0 6
BITMAP
FFFE
FFFE
ENDCHAR
STARTCHAR 2014
ENCODING 8212
SWIDTH 600 0
DWIDTH 15 0
BBX 15 2 0 6
BITMAP
FFFE
FFFE
ENDCHAR
STARTCHAR 2018
ENCODING 8216
SWIDTH 600 0
DWIDTH 15 0
BBX 4 7 6 12
BITMAP
30
70
60
E0
E0
E0
E0
ENDCHAR
STARTCHAR 2019
ENCODING 8217
SWIDTH 600 0
DWIDTH 15 0
BBX 4 7 6 12
BITMAP
70
70
70
70
60
E0
C0
ENDCHAR
STARTCHAR 201A
ENCODING 8218
SWIDTH 600 0
DWIDTH 15 0
BBX 4 7 5 -3
BITMAP
70
70
70
70
60
E0
C0
ENDCHAR
STARTCHAR 201C
ENCODING 8220
SWIDTH 600 0
DWIDTH 15 0
BBX 10 7 3 12
BITMAP
30C0
71C0
6180
E380
E380
E380
E380
ENDCHAR
STARTCHAR 201D
ENCODING 8221
SWIDTH 600 0
DWIDTH 15 0
BBX 10 7 3 12
BITMAP
71C0
71C0
71C0
71C0
6180
E380
C300
ENDCHAR
STARTCHAR 201E
ENCODING 8222
SWIDTH 600 0
DWIDTH 15 0
BBX 10 7 3 -3
BITMAP
71C0
71C0
71C0
71C0
6180
E380
C300
ENDCHAR
STARTCHAR 2020
ENCODING 8224
SWIDTH 600 0
DWIDTH 15 0
BBX 10 20 2 -2
BITMAP
0C00
0C00
0C00
0C00
0C00
FFC0
FFC0
0C00
0C00
0C00
0C00
0C00
0C00
0C00
0C00
0C00
0C00
0C00
0C00
0C00
ENDCHAR
STARTCHAR 2021
ENCODING 8225
SWIDTH 600 0
DWIDTH 15 0
BBX 10 20 2 -2
BITMAP
0C00
0C00
0C00
0C00
0C00
FFC0
FFC0
0C00
0C00
0C00
0C00
0C00
0C00
FFC0
FFC0
0C00
0C00
0C00
0C00
0C00
ENDCHAR
STARTCHAR 2022
ENCODING 8226
SWIDTH 600 0
DWIDTH 15 0
BBX 7 7 4 6
BITMAP
38
7C
FE
FE
FE
7C
38
ENDCHAR
STARTCHAR 2026
ENCODING 8230
SWIDTH 600 0
DWIDTH 15 0
BBX 13 4 1 0
BITMAP
E738
E738
E738
E738
ENDCHAR
STARTCHAR 2030
ENCODING 8240
SWIDTH 600 0
DWIDTH 15 0
BBX 15 18 0 0
BITMAP
3800
7C00
C600
C600
C608
7C30
38C0
0700
1C00
7000
6000
1C38
3E7C
63C6
63C6
63C6
3E7C
1C38
ENDCHAR
STARTCHAR 2039
ENCODING 8249
SWIDTH 600 0
DWIDTH 15 0
BBX 6 11 4 2
BITMAP
04
0C
1C
38
60
C0
60
38
1C
0C
04
ENDCHAR
STARTCHAR 203A
ENCODING 8250
SWIDTH 600 0
DWIDTH 15 0
BBX 6 11 5 2
BITMAP
80
C0
E0
70
18
0C
18
70
E0
C0
80
ENDCHAR
STARTCHAR 20AC
ENCODING 8364
SWIDTH 600 0
DWIDTH 15 0
BBX 13 18 0 0
BITMAP
03F0
0FF8
0E18
1808
1800
3000
FFE0
FFC0
3000
3000
FF80
FF80
3000
3800
1808
0C18
0FF8
03F0
ENDCHAR
STARTCHAR 2122
ENCODING 8482
SWIDTH 600 0
DWIDTH 15 0
BBX 13 7 0 11
BITMAP
FB18
23B8
22A8
22E8
2248
2208
2208
ENDCHAR
STARTCHAR 2202
ENCODING 8706
SWIDTH 600 0
DWIDTH 15 0
BBX 10 16 2 0
BITMAP
1E00
3900
0080
00C0
00C0
00C0
1CC0
72C0
61C0
C1C0
C1C0
C180
C180
C300
6600
3C00
ENDCHAR
STARTCHAR 2206
ENCODING 8710
SWIDTH 600 0
DWIDTH 15 0
BBX 15 17 0 0
BITMAP
0380
0380
07C0
07C0
07C0
0EE0
0EE0
1EE0
1C70
1C70
3C78
3838
3838
781C
701C
7FFC
FFFE
ENDCHAR
STARTCHAR 220F
ENCODING 8719
SWIDTH 600 0
DWIDTH 15 0
BBX 11 24 2 -5
BITMAP
FFE0
FFE0
C060
C060
C060
C060
C060
C060
C060
C060
C060
C060
C060
C060
C060
C060
C060
C060
C060
C060
C060
C060
C060
C060
ENDCHAR
STARTCHAR 2211
ENCODING 8721
SWIDTH 600 0
DWIDTH 15 0
BBX 12 24 2 -5
BITMAP
FFF0
FFF0
6000
2000
3000
1800
1800
0C00
0600
0600
0300
0180
0180
0300
0600
0600
0C00
1800
1800
3000
6000
6000
FFF0
FFF0
ENDCHAR
STARTCHAR 2212
ENCODING 8722
SWIDTH 600 0
DWIDTH 15 0
BBX 13 2 1 7
BITMAP
FFF8
FFF8
ENDCHAR
STARTCHAR 2215
ENCODING 8725
SWIDTH 600 0
DWIDTH 15 0
BBX 12 21 1 -3
BITMAP
0030
0060
0060
00C0
00C0
0180
0180
0300
0300
0600
0600
0600
0C00
0C00
1800
1800
3000
3000
6000
6000
C000
ENDCHAR
STARTCHAR 2219
ENCODING 8729
SWIDTH 600 0
DWIDTH 15 0
BBX 3 4 6 7
BITMAP
E0
E0
E0
E0
ENDCHAR
STARTCHAR 221A
ENCODING 8730
SWIDTH 600 0
DWIDTH 15 0
BBX 14 22 1 -1
BITMAP
000C
000C
0018
0018
0018
0030
0030
0030
0060
0060
F060
F0C0
10C0
18C0
1980
1980
0D80
0F00
0F00
0700
0600
0600
ENDCHAR
STARTCHAR 221E
ENCODING 8734
SWIDTH 600 0
DWIDTH 15 0
BBX 14 9 1 3
BITMAP
3870
7CF8
E79C
C30C
C30C
C30C
E79C
7CF8
3870
ENDCHAR
STARTCHAR 222B
ENCODING 8747
SWIDTH 600 0
DWIDTH 15 0
BBX 12 23 1 -4
BITMAP
00E0
0170
0370
0200
0200
0600
0600
0600
0600
0600
0600
0600
0600
0600
0600
0600
0600
0400
0400
0400
EC00
E800
7000
ENDCHAR
STARTCHAR 2248
ENCODING 8776
SWIDTH 600 0
DWIDTH 15 0
BBX 13 8 1 3
BITMAP
3C00
FF18
C3F8
01E0
3C08
FF18
C3F8
01E0
ENDCHAR
STARTCHAR 2260
ENCODING 8800
SWIDTH 600 0
DWIDTH 15 0
BBX 13 15 1 0
BITMAP
0010
0030
0070
00E0
FFF8
FFF8
0380
0700
0E00
FFF8
FFF8
3800
7000
6000
4000
ENDCHAR
STARTCHAR 2264
ENCODING 8804
SWIDTH 600 0
DWIDTH 15 0
BBX 13 13 1 0
BITMAP
0018
00F8
07F0
3F00
F800
F800
3F00
07F0
00F8
0018
0000
FFF8
FFF8
ENDCHAR
STARTCHAR 2265
ENCODING 8805
SWIDTH 600 0
DWIDTH 15 0
BBX 13 13 1 0
BITMAP
C000
F800
7F00
07E0
00F8
00F8
07E0
7F00
F800
C000
0000
FFF8
FFF8
ENDCHAR
STARTCHAR 25CA
ENCODING 9674
SWIDTH 600 0
DWIDTH 15 0
BBX 12 24 1 -5
BITMAP
0600
0600
0F00
0900
1980
1080
3080
2040
2040
6020
4020
C030
C030
4020
6060
2040
20C0
1080
1080
1980
0900
0F00
0600
0600
ENDCHAR
STARTCHAR FB01
ENCODING 64257
SWIDTH 600 0
DWIDTH 15 0
BBX 12 19 1 0
BITMAP
0F30
1F30
3030
3000
3000
FFF0
FFF0
3030
3030
3030
3030
3030
3030
3030
3030
3030
3030
3030
3030
ENDCHAR
STARTCHAR FB02
ENCODING 64258
SWIDTH 600 0
DWIDTH 15 0
BBX 12 19 1 0
BITMAP
0FF0
1FF0
3030
3030
3030
FF30
FF30
3030
3030
3030
3030
3030
3030
3030
3030
3030
3030
3030
3030
ENDCHAR
ENDFONT
